<mxfile host="app.diagrams.net" agent="Mozilla/5.0 (Windows NT 10.0; Win64; x64; rv:142.0) Gecko/20100101 Firefox/142.0" scale="1" border="0" version="28.1.1">
  <diagram name="Page-1" id="_2b1ErMGY5UTrHqBwVJQ">
    <mxGraphModel dx="2066" dy="1147" grid="1" gridSize="10" guides="1" tooltips="1" connect="1" arrows="1" fold="1" page="1" pageScale="1" pageWidth="827" pageHeight="1169" math="0" shadow="0">
      <root>
        <mxCell id="0" />
        <mxCell id="1" parent="0" />
        <mxCell id="7lRkBk3uzSVyypbzNh2O-1" value="" style="endArrow=none;html=1;rounded=0;" parent="1" edge="1">
          <mxGeometry width="50" height="50" relative="1" as="geometry">
            <mxPoint x="240" y="360" as="sourcePoint" />
            <mxPoint x="240" y="120" as="targetPoint" />
          </mxGeometry>
        </mxCell>
        <mxCell id="7lRkBk3uzSVyypbzNh2O-2" value="" style="endArrow=none;html=1;rounded=0;" parent="1" edge="1">
          <mxGeometry width="50" height="50" relative="1" as="geometry">
            <mxPoint x="440" y="360" as="sourcePoint" />
            <mxPoint x="440" y="120" as="targetPoint" />
          </mxGeometry>
        </mxCell>
        <mxCell id="7lRkBk3uzSVyypbzNh2O-4" value="&lt;div&gt;&lt;br&gt;&lt;/div&gt;&lt;div&gt;&lt;br&gt;&lt;/div&gt;&lt;div&gt;Client&lt;/div&gt;" style="shape=actor;whiteSpace=wrap;html=1;" parent="1" vertex="1">
          <mxGeometry x="210" y="10" width="70" height="90" as="geometry" />
        </mxCell>
        <mxCell id="7lRkBk3uzSVyypbzNh2O-5" value="" style="image;aspect=fixed;perimeter=ellipsePerimeter;html=1;align=center;shadow=0;dashed=0;spacingTop=3;image=img/lib/active_directory/generic_server.svg;" parent="1" vertex="1">
          <mxGeometry x="420" y="15" width="44.8" height="80" as="geometry" />
        </mxCell>
        <mxCell id="7lRkBk3uzSVyypbzNh2O-6" value="Server" style="text;html=1;align=center;verticalAlign=middle;resizable=0;points=[];autosize=1;strokeColor=none;fillColor=none;" parent="1" vertex="1">
          <mxGeometry x="410" y="88" width="60" height="30" as="geometry" />
        </mxCell>
        <mxCell id="7lRkBk3uzSVyypbzNh2O-7" value="&lt;div&gt;ClientHello&lt;/div&gt;&lt;div&gt;key_share*&lt;/div&gt;&lt;div&gt;signature_algorithms*&lt;/div&gt;&lt;div&gt;psk_key_exchange_modes*&lt;/div&gt;&lt;div&gt;pre_shared_key*&lt;/div&gt;" style="text;html=1;align=center;verticalAlign=middle;resizable=0;points=[];autosize=1;strokeColor=none;fillColor=none;" parent="1" vertex="1">
          <mxGeometry x="70" y="95" width="170" height="90" as="geometry" />
        </mxCell>
        <mxCell id="7lRkBk3uzSVyypbzNh2O-8" value="&lt;div&gt;ServerHello&lt;/div&gt;&lt;div&gt;key_share*&lt;/div&gt;&lt;div&gt;pre_shared_keys*&lt;/div&gt;&lt;div&gt;{EncryptedExtensions}&lt;/div&gt;&lt;div&gt;{CertificateRequest*}&lt;/div&gt;&lt;div&gt;{Certificate*}&lt;/div&gt;&lt;div&gt;{CertificateVerify*}&lt;/div&gt;&lt;div&gt;{Finished}&lt;/div&gt;" style="text;html=1;align=center;verticalAlign=middle;resizable=0;points=[];autosize=1;strokeColor=none;fillColor=none;" parent="1" vertex="1">
          <mxGeometry x="455" y="85" width="140" height="130" as="geometry" />
        </mxCell>
        <mxCell id="7lRkBk3uzSVyypbzNh2O-9" value="&lt;div&gt;{Certificate*}&lt;/div&gt;&lt;div&gt;{CertificateVerify*}&lt;/div&gt;&lt;div&gt;{Finished}&lt;/div&gt;" style="text;html=1;align=center;verticalAlign=middle;resizable=0;points=[];autosize=1;strokeColor=none;fillColor=none;" parent="1" vertex="1">
          <mxGeometry x="95" y="210" width="120" height="60" as="geometry" />
        </mxCell>
        <mxCell id="7lRkBk3uzSVyypbzNh2O-11" value="[Application Data]" style="text;html=1;align=center;verticalAlign=middle;resizable=0;points=[];autosize=1;strokeColor=none;fillColor=none;" parent="1" vertex="1">
          <mxGeometry x="95" y="310" width="120" height="30" as="geometry" />
        </mxCell>
        <mxCell id="7lRkBk3uzSVyypbzNh2O-12" value="[Application Data]" style="text;html=1;align=center;verticalAlign=middle;resizable=0;points=[];autosize=1;strokeColor=none;fillColor=none;" parent="1" vertex="1">
          <mxGeometry x="465" y="310" width="120" height="30" as="geometry" />
        </mxCell>
        <mxCell id="7lRkBk3uzSVyypbzNh2O-13" value="" style="endArrow=classic;html=1;rounded=0;" parent="1" edge="1">
          <mxGeometry width="50" height="50" relative="1" as="geometry">
            <mxPoint x="240" y="140" as="sourcePoint" />
            <mxPoint x="440" y="140" as="targetPoint" />
          </mxGeometry>
        </mxCell>
        <mxCell id="7lRkBk3uzSVyypbzNh2O-14" value="" style="endArrow=classic;html=1;rounded=0;" parent="1" edge="1">
          <mxGeometry width="50" height="50" relative="1" as="geometry">
            <mxPoint x="440" y="140" as="sourcePoint" />
            <mxPoint x="240" y="230" as="targetPoint" />
          </mxGeometry>
        </mxCell>
        <mxCell id="7lRkBk3uzSVyypbzNh2O-15" value="" style="endArrow=classic;html=1;rounded=0;" parent="1" edge="1">
          <mxGeometry width="50" height="50" relative="1" as="geometry">
            <mxPoint x="240" y="230" as="sourcePoint" />
            <mxPoint x="440" y="230" as="targetPoint" />
          </mxGeometry>
        </mxCell>
        <mxCell id="7lRkBk3uzSVyypbzNh2O-18" value="" style="endArrow=classic;startArrow=classic;html=1;rounded=0;" parent="1" edge="1">
          <mxGeometry width="50" height="50" relative="1" as="geometry">
            <mxPoint x="240" y="320" as="sourcePoint" />
            <mxPoint x="440" y="320" as="targetPoint" />
          </mxGeometry>
        </mxCell>
      </root>
    </mxGraphModel>
  </diagram>
</mxfile>
